<?xml version="1.0" encoding="UTF-8" standalone="no"?>
<!DOCTYPE svg PUBLIC "-//W3C//DTD SVG 1.1//EN" "http://www.w3.org/Graphics/SVG/1.1/DTD/svg11.dtd">
<svg width="100%" height="100%" viewBox="0 0 800 800" version="1.1" xmlns="http://www.w3.org/2000/svg" xmlns:xlink="http://www.w3.org/1999/xlink" xml:space="preserve" xmlns:serif="http://www.serif.com/" style="fill-rule:evenodd;clip-rule:evenodd;stroke-linejoin:round;stroke-miterlimit:2;">
    <g transform="matrix(24.9997,0,0,24.9997,-399.996,-399.993)">
        <path d="M47.781,31.608L46.438,30.776C46.427,30.646 46.414,30.515 46.4,30.385L47.554,29.308C47.649,29.221 47.703,29.098 47.703,28.969C47.703,28.776 47.582,28.603 47.401,28.537L45.925,27.985C45.888,27.858 45.85,27.731 45.81,27.604L46.73,26.325C46.787,26.246 46.818,26.151 46.818,26.054C46.818,25.828 46.653,25.634 46.43,25.598L44.873,25.345C44.813,25.227 44.75,25.111 44.686,24.995L45.34,23.56C45.368,23.499 45.383,23.433 45.383,23.366C45.383,23.113 45.175,22.906 44.923,22.906C44.916,22.906 44.91,22.906 44.903,22.906L43.324,22.961C43.242,22.859 43.159,22.758 43.074,22.659L43.437,21.12C43.445,21.085 43.45,21.049 43.45,21.012C43.45,20.759 43.242,20.551 42.989,20.551C42.952,20.551 42.916,20.556 42.881,20.564L41.343,20.926C41.243,20.842 41.143,20.759 41.04,20.676L41.095,19.098C41.095,19.091 41.095,19.085 41.095,19.078C41.095,18.826 40.888,18.618 40.635,18.618C40.568,18.618 40.502,18.633 40.441,18.661L39.006,19.315C38.89,19.251 38.773,19.188 38.656,19.127L38.403,17.571C38.367,17.348 38.173,17.183 37.947,17.183C37.85,17.183 37.756,17.213 37.677,17.27L36.397,18.19C36.271,18.15 36.144,18.112 36.017,18.075L35.465,16.599C35.398,16.418 35.225,16.297 35.032,16.297C34.904,16.297 34.781,16.351 34.694,16.445L33.617,17.601C33.487,17.587 33.357,17.573 33.226,17.563L32.394,16.219C32.31,16.083 32.161,16 32.001,16C31.841,16 31.692,16.083 31.608,16.219L30.776,17.563C30.646,17.573 30.515,17.587 30.385,17.601L29.308,16.446C29.22,16.353 29.098,16.3 28.971,16.3C28.779,16.3 28.605,16.42 28.537,16.599L27.985,18.075C27.857,18.112 27.73,18.151 27.605,18.191L26.325,17.27C26.246,17.212 26.151,17.181 26.053,17.181C25.827,17.181 25.633,17.347 25.598,17.57L25.344,19.127C25.227,19.188 25.111,19.251 24.994,19.315L23.56,18.661C23.499,18.633 23.433,18.618 23.366,18.618C23.113,18.618 22.906,18.826 22.906,19.078C22.906,19.084 22.906,19.091 22.906,19.097L22.961,20.677C22.859,20.759 22.758,20.842 22.658,20.927L21.12,20.564C21.086,20.556 21.05,20.552 21.015,20.552C20.761,20.552 20.551,20.761 20.551,21.016C20.551,21.051 20.555,21.086 20.563,21.12L20.926,22.659C20.841,22.759 20.758,22.859 20.676,22.961L19.097,22.906C19.091,22.906 19.086,22.906 19.08,22.906C18.827,22.906 18.618,23.114 18.618,23.368C18.618,23.434 18.632,23.5 18.66,23.56L19.314,24.996C19.251,25.111 19.188,25.227 19.127,25.346L17.571,25.598C17.348,25.634 17.182,25.828 17.182,26.054C17.182,26.151 17.213,26.246 17.27,26.325L18.19,27.604C18.15,27.73 18.112,27.857 18.075,27.984L16.599,28.537C16.419,28.604 16.299,28.777 16.299,28.97C16.299,29.098 16.352,29.221 16.446,29.308L17.601,30.385C17.586,30.515 17.573,30.645 17.562,30.776L16.219,31.608C16.083,31.692 16,31.841 16,32.001C16,32.161 16.083,32.31 16.219,32.394L17.562,33.225C17.573,33.356 17.586,33.487 17.601,33.617L16.446,34.694C16.352,34.781 16.299,34.904 16.299,35.032C16.299,35.225 16.419,35.398 16.599,35.465L18.075,36.017C18.112,36.145 18.151,36.272 18.191,36.397L17.27,37.677C17.213,37.756 17.183,37.85 17.183,37.947C17.183,38.173 17.348,38.367 17.571,38.403L19.127,38.656C19.188,38.774 19.25,38.891 19.315,39.006L18.66,40.441C18.632,40.501 18.618,40.567 18.618,40.633C18.618,40.887 18.827,41.095 19.08,41.095C19.086,41.095 19.091,41.095 19.097,41.095L20.676,41.04C20.758,41.143 20.841,41.243 20.926,41.343L20.563,42.882C20.554,42.917 20.55,42.954 20.55,42.99C20.55,43.243 20.758,43.45 21.01,43.45C21.047,43.45 21.084,43.446 21.12,43.437L22.658,43.075C22.758,43.16 22.859,43.242 22.961,43.324L22.906,44.904C22.906,44.91 22.906,44.916 22.906,44.921C22.906,45.174 23.114,45.382 23.367,45.382C23.433,45.382 23.499,45.368 23.56,45.34L24.995,44.686C25.11,44.75 25.227,44.813 25.345,44.874L25.598,46.429C25.633,46.653 25.827,46.819 26.054,46.819C26.151,46.819 26.246,46.788 26.325,46.731L27.604,45.809C27.73,45.849 27.857,45.889 27.984,45.925L28.536,47.401C28.602,47.582 28.775,47.703 28.968,47.703C29.097,47.703 29.22,47.649 29.307,47.554L30.385,46.399C30.515,46.414 30.645,46.427 30.776,46.439L31.608,47.782C31.692,47.918 31.841,48 32.001,48C32.161,48 32.31,47.918 32.394,47.782L33.225,46.438C33.356,46.427 33.487,46.414 33.617,46.399L34.694,47.554C34.781,47.648 34.904,47.702 35.032,47.702C35.225,47.702 35.398,47.582 35.464,47.401L36.017,45.925C36.144,45.889 36.271,45.849 36.397,45.809L37.677,46.731C37.756,46.787 37.85,46.817 37.946,46.817C38.172,46.817 38.367,46.652 38.403,46.429L38.657,44.873C38.774,44.813 38.89,44.749 39.006,44.686L40.441,45.34C40.502,45.368 40.568,45.383 40.634,45.383C40.887,45.383 41.095,45.174 41.095,44.922C41.095,44.915 41.095,44.909 41.095,44.903L41.04,43.323C41.142,43.243 41.243,43.16 41.343,43.075L42.881,43.437C42.917,43.446 42.953,43.45 42.99,43.45C43.242,43.45 43.45,43.242 43.45,42.99C43.45,42.954 43.446,42.917 43.437,42.882L43.075,41.343C43.159,41.243 43.242,41.143 43.324,41.04L44.904,41.095C44.91,41.095 44.917,41.095 44.923,41.095C45.175,41.095 45.383,40.888 45.383,40.635C45.383,40.568 45.368,40.502 45.34,40.441L44.686,39.006C44.75,38.891 44.812,38.774 44.873,38.656L46.429,38.403C46.652,38.368 46.819,38.174 46.819,37.948C46.819,37.851 46.788,37.756 46.73,37.677L45.81,36.397C45.85,36.271 45.888,36.144 45.925,36.017L47.401,35.465C47.582,35.399 47.703,35.226 47.703,35.033C47.703,34.904 47.649,34.781 47.554,34.694L46.399,33.617C46.413,33.487 46.426,33.356 46.438,33.225L47.781,32.394C47.917,32.31 48,32.161 48,32.001C48,31.841 47.917,31.692 47.781,31.608ZM38.79,42.752C38.365,42.649 38.063,42.265 38.063,41.827C38.063,41.305 38.493,40.875 39.015,40.875C39.073,40.875 39.132,40.88 39.189,40.891C39.616,40.993 39.92,41.378 39.92,41.817C39.92,42.339 39.49,42.769 38.968,42.769C38.908,42.769 38.848,42.763 38.789,42.752L38.79,42.752ZM38.333,39.665C38.273,39.652 38.213,39.646 38.152,39.646C37.745,39.646 37.39,39.933 37.305,40.331L36.828,42.557C35.312,43.245 33.665,43.599 32,43.597C30.24,43.597 28.57,43.207 27.071,42.51L26.594,40.285C26.509,39.886 26.154,39.599 25.747,39.599C25.686,39.599 25.625,39.605 25.566,39.618L23.601,40.04C23.236,39.664 22.896,39.264 22.585,38.843L32.146,38.843C32.254,38.843 32.326,38.823 32.326,38.725L32.326,35.343C32.326,35.244 32.254,35.225 32.146,35.225L29.35,35.225L29.35,33.08L32.374,33.08C32.65,33.08 33.85,33.159 34.234,34.693C34.354,35.164 34.618,36.699 34.798,37.19C34.978,37.741 35.71,38.842 36.49,38.842L41.254,38.842C41.312,38.841 41.37,38.836 41.427,38.825C41.097,39.274 40.734,39.699 40.344,40.095L38.334,39.664L38.333,39.665ZM25.11,42.705C25.053,42.716 24.994,42.721 24.936,42.721C24.414,42.721 23.984,42.291 23.984,41.769C23.984,41.331 24.286,40.947 24.711,40.844C24.776,40.83 24.843,40.823 24.91,40.823C25.432,40.823 25.862,41.253 25.862,41.775C25.862,42.222 25.547,42.612 25.109,42.706L25.11,42.705ZM21.483,27.998C21.537,28.119 21.565,28.251 21.565,28.384C21.565,28.905 21.136,29.334 20.615,29.334C20.24,29.334 19.898,29.112 19.746,28.769C19.692,28.648 19.664,28.516 19.664,28.383C19.664,27.862 20.093,27.433 20.614,27.433C20.989,27.433 21.331,27.655 21.483,27.998ZM20.368,30.641L22.415,29.731C22.849,29.537 23.048,29.021 22.855,28.586L22.434,27.633L24.092,27.633L24.092,35.107L20.747,35.107C20.334,33.657 20.205,32.14 20.367,30.641L20.368,30.641ZM29.351,29.915L29.351,27.712L33.299,27.712C33.503,27.712 34.739,27.948 34.739,28.872C34.739,29.639 33.791,29.915 33.011,29.915L29.351,29.915ZM43.7,31.898C43.7,32.19 43.689,32.479 43.667,32.766L42.467,32.766C42.347,32.766 42.299,32.846 42.299,32.963L42.299,33.514C42.299,34.812 41.567,35.094 40.926,35.166C40.316,35.234 39.638,34.91 39.555,34.536C39.195,32.511 38.595,32.078 37.647,31.33C38.823,30.584 40.047,29.482 40.047,28.007C40.047,26.414 38.955,25.411 38.211,24.919C37.167,24.231 36.011,24.093 35.699,24.093L23.285,24.093C25,22.175 27.302,20.876 29.83,20.399L31.293,21.934C31.624,22.28 32.173,22.294 32.518,21.962L34.156,20.396C37.531,21.03 40.463,23.117 42.165,26.1L41.044,28.632C40.852,29.067 41.05,29.583 41.484,29.777L43.643,30.735C43.68,31.118 43.699,31.505 43.699,31.898L43.7,31.898ZM31.294,19.093C31.471,18.924 31.706,18.83 31.951,18.83C32.21,18.83 32.459,18.936 32.638,19.124C32.807,19.301 32.901,19.536 32.901,19.781C32.901,20.041 32.794,20.29 32.606,20.47C32.429,20.639 32.195,20.733 31.95,20.733C31.691,20.733 31.442,20.626 31.263,20.438C30.903,20.06 30.917,19.454 31.294,19.093ZM42.417,28.044C42.569,27.701 42.911,27.48 43.286,27.48C43.807,27.48 44.236,27.909 44.236,28.43C44.236,28.563 44.208,28.694 44.154,28.816C44.002,29.159 43.66,29.38 43.285,29.38C42.764,29.38 42.335,28.951 42.335,28.43C42.335,28.297 42.363,28.166 42.417,28.044Z" style="fill-rule:nonzero;"/>
    </g>
</svg>
